<?xml version="1.0" encoding="utf-8"?>
<!-- Generator: Adobe Illustrator 16.0.0, SVG Export Plug-In . SVG Version: 6.00 Build 0)  -->
<!DOCTYPE svg PUBLIC "-//W3C//DTD SVG 1.1 Tiny//EN" "http://www.w3.org/Graphics/SVG/1.1/DTD/svg11-tiny.dtd">
<svg version="1.1" baseProfile="tiny" id="Calque_1"
	 xmlns="http://www.w3.org/2000/svg" xmlns:xlink="http://www.w3.org/1999/xlink" x="0px" y="0px" width="303px" height="129.999px"
	 viewBox="0 0 303 129.999" xml:space="preserve">
<g>
	<g>
		<path fill="#D52B1E" d="M41.138,127.179c-20.139,0-28.688-14.249-28.688-28.309V49.853H2v-18.81h10.45V1.784h24.699v29.259h17.479
			v18.81H37.148V97.35c0,5.7,2.66,8.93,8.549,8.93h8.93v20.899H41.138z"/>
	</g>
	<g>
		<path fill="#D52B1E" d="M146.435,127.179V106.28h8.93c5.889,0,8.55-3.23,8.55-8.93V49.853h-17.48v-18.81h17.48V1.784h24.697
			v29.259h10.45v18.81h-10.45V98.87c0,14.06-8.548,28.309-28.687,28.309H146.435z"/>
	</g>
	<g>
		<path d="M126.821,27.281c-3.338-3.552-6.175-5.505-11.514-5.505c-6.676,0-14.019,5.328-14.019,17.047V94.58H79.595V2.065h21.194
			v8.878C104.96,5.617,113.304,1,122.649,1c8.511,0,14.518,2.308,20.526,8.701L126.821,27.281z"/>
	</g>
	<g>
		<path fill="#ADAFAF" d="M290.768,118.236c-5.705,5.619-14.796,10.185-27.99,10.185c-13.192,0-22.821-4.566-28.346-10.01
			c-7.847-7.727-9.628-16.858-10.342-25.99h23.177c1.248,9.834,5.884,15.454,15.511,15.454c4.458,0,8.201-1.229,11.053-4.039
			c4.101-4.039,4.993-10.712,4.993-18.614c0-14.401-4.278-22.479-15.511-22.479c-9.45,0-13.728,5.268-15.332,10.186h-21.216V2.333
			h72.383v20.546h-51.346v26.868c3.386-3.161,10.518-6.322,19.076-6.322c10.52,0,18.542,3.337,23.712,8.43
			c9.984,9.834,11.41,21.6,11.41,33.367C302,99.27,300.038,109.104,290.768,118.236z"/>
	</g>
</g>
</svg>
